<svg xmlns="http://www.w3.org/2000/svg" version="1.1" xmlns:xlink="http://www.w3.org/1999/xlink" xmlns:svgjs="http://svgjs.dev/svgjs" width="1440" height="560" preserveAspectRatio="none" viewBox="0 0 1440 560"><g mask="url(&quot;#SvgjsMask1017&quot;)" fill="none"><path d="M1488 560L0 560 L0 331.3Q45.38 304.69, 72 350.07Q111.56 269.63, 192 309.19Q243.57 240.76, 312 292.34Q395.06 255.39, 432 338.45Q455.4 289.85, 504 313.24Q556.44 245.68, 624 298.12Q691.29 293.41, 696 360.7Q739.42 332.13, 768 375.55Q778.14 313.69, 840 323.84Q869.67 281.51, 912 311.19Q960.73 287.92, 984 336.65Q1021.06 253.7, 1104 290.76Q1156.7 271.46, 1176 324.16Q1225.97 302.13, 1248 352.11Q1315.08 299.19, 1368 366.27Q1433.76 312.03, 1488 377.79z" fill="rgba(68, 89, 33, 1)"></path><path d="M1512 560L0 560 L0 405.09Q26.34 359.43, 72 385.77Q126.49 320.25, 192 374.74Q244.65 307.39, 312 360.04Q371.21 347.25, 384 406.46Q431.95 334.41, 504 382.36Q591.31 349.67, 624 436.98Q645.39 386.37, 696 407.76Q722.86 362.62, 768 389.47Q793.62 343.09, 840 368.7Q921.28 329.98, 960 411.26Q1026.96 358.22, 1080 425.18Q1123.67 348.86, 1200 392.53Q1248.87 321.39, 1320 370.26Q1408.42 338.69, 1440 427.11Q1460.98 376.09, 1512 397.07z" fill="rgba(123, 159, 65, 1)"></path><path d="M1488 560L0 560 L0 421.37Q71.93 421.3, 72 493.22Q99.63 448.85, 144 476.48Q196.95 457.43, 216 510.38Q221.6 443.98, 288 449.57Q310.62 400.19, 360 422.8Q446.34 389.14, 480 475.48Q525.35 400.83, 600 446.18Q666.23 392.41, 720 458.64Q783.88 450.52, 792 514.4Q808.7 459.1, 864 475.8Q889.98 429.78, 936 455.77Q955.33 403.1, 1008 422.42Q1074.61 369.03, 1128 435.64Q1218.5 406.14, 1248 496.64Q1301.93 430.57, 1368 484.5Q1422.07 418.56, 1488 472.63z" fill="rgba(151, 195, 79, 1)"></path><path d="M1488 560L0 560 L0 537.33Q65.89 483.22, 120 549.11Q161.67 518.78, 192 560.45Q260.14 508.59, 312 576.73Q317.07 509.8, 384 514.86Q451.49 462.35, 504 529.83Q547.51 453.34, 624 496.85Q711.85 464.7, 744 552.55Q784.32 472.87, 864 513.18Q914.51 443.69, 984 494.21Q1043.77 481.98, 1056 541.74Q1135.88 501.62, 1176 581.49Q1184.18 517.67, 1248 525.85Q1313.21 471.07, 1368 536.28Q1406.49 454.77, 1488 493.27z" fill="rgba(247, 251, 249, 1)"></path></g><defs><mask id="SvgjsMask1017"><rect width="1440" height="560" fill="#ffffff"></rect></mask></defs></svg>