<?xml version="1.0"?>
<svg width="850" height="520.84494" xmlns="http://www.w3.org/2000/svg" xmlns:svg="http://www.w3.org/2000/svg" data-name="Layer 1">
 <g class="layer">
  <title>Layer 1</title>
  <path d="m717.34,462.94a14.65,14.65 0 0 0 11.04,-26.93l-31.1,-35.28l-26.31,5.68l37,36.24a14.57,14.57 0 0 0 9.37,20.29z" fill="#a0616a" id="svg_1" transform="translate(-175 -189.57753)"/>
  <polygon fill="#97c34f" id="svg_2" points="440.016 147.04 517.531 244.34 541.159 233.492 450.049 91.647 440.016 147.04"/>
  <path d="m967.41,672.9c4.86,-9.43 2.22,-21.32 -3.83,-30.03s-14.97,-14.91 -23.7,-20.92l-12.15,-8.37l5.8,29.12c1.96,9.84 4.37,20.47 12.06,26.92a22.73,22.73 0 0 0 21.95,3.87" data-name="a9adb9ea-63bd-4fab-ab8c-5a8362c24c0e" fill="#e6e6e6" id="bbb65a06-4388-4569-87f8-fdcf21a5aae9-99" transform="translate(-175 -189.57753)"/>
  <path d="m966.5,708.73a0.88,0.88 0 0 1 -1.08,0.61a0.9,0.9 0 0 1 -0.61,-1.07c0.68,-4.93 1.35,-9.87 1.67,-14.83c0.52,-8.22 0.04,-16.65 -3,-24.38a35.3,35.3 0 0 0 -13.97,-16.84c-0.94,-0.6 -0.07,-2.11 0.88,-1.51a37.13,37.13 0 0 1 9.53,8.63c4.99,6.44 7.44,14.29 8.21,22.32c0.86,9.05 -0.4,18.12 -1.63,27.07z" data-name="ed5b34f6-0534-4519-a094-dcdf83ab50dc" fill="#f2f2f2" id="b60b4bdd-1468-4587-b387-9dd74123fc14-100" transform="translate(-175 -189.57753)"/>
  <path d="m842.9,653.44c38.26,23.54 25.51,54.93 25.51,54.93l-25.51,-54.93z" data-name="e0867f2b-861c-49f4-a2d1-8ca31a29fe8f" fill="#e6e6e6" id="bb361191-ab63-4eee-8f74-e0c90ef218a4-101" transform="translate(-175 -189.57753)"/>
  <path d="m918.09,685.62c-30.11,-0.19 -34,22.18 -34,22.18l34,-22.18z" data-name="b461d634-05fb-4647-ba4f-16823402cab1" fill="#e6e6e6" id="a8c2400c-de96-4d85-b082-a15f0836198d-102" transform="translate(-175 -189.57753)"/>
  <circle cx="257.33" cy="512.15" fill="#f7fbf9" id="svg_3" r="8.5"/>
  <path d="m263.52,340.95s20.09,-61.06 21.64,-65.31s17.77,2.71 22.02,3.86s3.1,5.41 3.1,5.41l-21.64,62.61l6.57,3.09l20.09,-62.99c11.59,-11.98 3.09,-12.75 3.09,-12.75s-24.73,-8.5 -34.01,-9.28s-5.79,10.44 -5.79,10.44l-22.42,59.51l7.35,5.41z" fill="#f7fbf9" id="svg_4"/>
  <path d="m486.82,545.22l0,-0.01a24.1,24.1 0 0 0 -11.59,-8.88q-0.25,-0.1 -0.58,-0.21c-10.65,-3.72 -84.83,-23.75 -84.83,-23.75s-14.68,-5.41 -21.25,9.27s-45.6,136.42 -45.6,136.42s76.34,40.82 98.59,45.27a13.44,13.44 0 0 0 4.2,0.33a59.23,59.23 0 0 0 11.12,-2.66a46.53,46.53 0 0 0 11.3,-5.46l43.28,-129.46s6.18,-14.3 -4.64,-20.86z" fill="#97c34f" id="svg_5" transform="translate(-175 -189.57753)"/>
  <path d="m311.82,355.64l0,-0.01a24.1,24.1 0 0 0 -11.59,-8.88q-0.25,-0.1 -0.58,-0.21c3.5,6.13 4.83,15.66 4.83,15.66s-42.51,126.37 -46.37,138.35c-2.95,9.14 -8.89,12.24 -11.55,13.2a13.44,13.44 0 0 0 4.2,0.33a59.23,59.23 0 0 0 11.12,-2.66a24.74,24.74 0 0 0 2.8,-3.91s43.28,-129.46 47.14,-135.64c3.87,-6.19 0,-16.23 0,-16.23z" fill="#f7fbf9" id="svg_6"/>
  <circle cx="231.25" cy="512.34" fill="#f7fbf9" id="svg_7" r="8.5"/>
  <circle cx="148.74" cy="476.6" fill="#f7fbf9" id="svg_8" r="8.5"/>
  <path d="m473.6,470.4a14.65,14.65 0 0 1 -11.99,-26.52l29.82,-36.37l26.49,4.74l-35.68,37.54a14.57,14.57 0 0 1 -8.64,20.61z" fill="#a0616a" id="svg_9" transform="translate(-175 -189.57753)"/>
  <polygon fill="#a0616a" id="svg_10" points="501.866 440.846 520.34 440.556 518.118 503.522 501.869 503.522 501.866 440.846"/>
  <path d="m497.72,498.21l32.01,0l0,0a20.39,20.39 0 0 1 20.39,20.4l0,0.66l-52.4,0l0,-21.06z" fill="#f7fbf9" id="svg_11" transform="matrix(1 0 0 1 0 0)"/>
  <polygon fill="#a0616a" id="svg_12" points="379.549 424.146 399.73 437.102 359.362 485.667 345.688 476.888 379.549 424.146"/>
  <path d="m345.07,470.18l26.93,17.29l0,0a20.39,20.39 0 0 1 6.14,28.18l-0.36,0.56l-44.09,-28.31l11.38,-17.72z" fill="#f7fbf9" id="svg_13" transform="matrix(1 0 0 1 0 0)"/>
  <path d="m372.36,231.87s44.84,-148.92 59.25,-150.94s37.63,38.22 37.63,38.22c30.1,38.4 61.14,162.82 61.14,162.82s-51.75,3.23 -89.57,23.36s-82.47,-1.02 -82.47,-1.02l14.02,-72.44z" fill="#97c34f" id="svg_14"/>
  <path d="m547.36,421.45s44.84,-148.92 59.25,-150.94s31.73,38.62 31.73,38.62c15,62 67.04,162.42 67.04,162.42s-51.75,3.23 -89.57,23.36s-82.47,-1.02 -82.47,-1.02l14.02,-72.44z" id="svg_15" opacity="0.1" transform="translate(-175 -189.57753)"/>
  <polygon fill="#f7fbf9" id="svg_16" points="409.147 187.317 409.147 262.152 400.34 370.556 356.34 452.556 377.34 467.556 437.34 389.556 461.071 312.107 498.34 483.556 526.34 481.556 506.894 243.845 469.993 176.935 409.147 187.317" transform="matrix(1 0 0 1 0 0)"/>
  <path d="m454.36,114.93c14,14 1,29 1,29l16,36l-63,17l-22.02,-98.38l15,-16c30,-1 30.02,-1.62 30.02,-1.62c5.25,5.15 23,34 23,34z" fill="#2c2d35" id="svg_17"/>
  <path d="m383.46,88.62l0,0a26.88,26.88 0 0 0 -7.78,34.33c7.22,13.78 14.98,35.12 10.98,58.55c-7.25,42.4 -30.47,74.62 -43.41,84.96c-4.5,3.6 -4.66,8.85 -4,12.61c1.85,10.52 12.05,22.46 19.11,24.86a4.56,4.56 0 0 0 1.47,0.23c11.46,0 39.66,-36.5 72.06,-107.81c20.17,-44.41 5.53,-80.02 -10.31,-102.07a26.88,26.88 0 0 0 -37.78,-5.92l-0.34,0.26z" fill="#97c34f" id="svg_18"/>
  <polygon fill="#97c34f" id="svg_19" points="413.34 131.556 322.356 250.935 298.356 240.935 384.356 95.935 413.34 131.556"/>
  <path d="m441.33,67.97l-62.58,0a4.86,4.86 0 0 1 -4.86,-4.85l0,-26.98l0,0a36.14,36.14 0 1 1 72.29,0l0,26.98a4.86,4.86 0 0 1 -4.85,4.85z" fill="#f7fbf9" id="svg_20"/>
  <circle cx="591.47" cy="230.42" fill="#a0616a" id="svg_21" r="26.5" transform="translate(-69.42256 449.3053) rotate(-61.3368)"/>
  <path d="m453.73,38.84l-38.26,0l-0.39,-5.49l-1.97,5.49l-5.89,0l-0.78,-10.89l-3.88,10.89l-11.4,0l0,-0.54a28.62,28.62 0 0 1 28.59,-28.59l5.39,0a28.62,28.62 0 0 1 28.59,28.59l0,0.54z" fill="#f7fbf9" id="svg_22"/>
  <path d="m415.16,73.01a4.96,4.96 0 0 1 -0.86,-0.08l-28.02,-4.94l0,-46.31l30.84,0l-0.76,0.89c-10.63,12.39 -2.62,32.48 3.09,43.36a4.78,4.78 0 0 1 -0.38,5.07a4.84,4.84 0 0 1 -3.91,2.01z" fill="#f7fbf9" id="svg_23"/>
  <path d="m175,709.42a1,1 0 0 1 1,-1l848,0a1,1 0 0 1 0,2l-848,0a1,1 0 0 1 -1,-1z" fill="#cbcbcb" id="svg_24" transform="translate(-175 -189.57753)"/>
 </g>
</svg>